<svg width="159" height="24" viewBox="0 0 159 24" fill="none" xmlns="http://www.w3.org/2000/svg">
<g clip-path="url(#clip0_2259_2733)">
<path d="M12.8369 24H0L0.980513 22.039C4.35692 15.2841 4.35692 8.70564 0.980513 1.96103L0 0H12.8369V2.70974H4.29949C6.83897 8.8841 6.83897 15.1159 4.29949 21.2903H12.8369V24Z" fill="#7D3FFF"/>
<path d="M19.1732 20.8839L17.1465 19.0829C19.9321 15.9485 22.767 13.5752 25.6019 11.9998C22.767 10.4244 19.9321 8.05111 17.1465 4.91675L19.1732 3.11572C22.5557 6.9229 25.9567 9.48495 29.2798 10.7301L32.6644 11.9998L29.2798 13.2696C25.9567 14.5147 22.5557 17.0767 19.1732 20.8839Z" fill="#7D3FFF"/>
<path d="M43.2426 20.525H39.3677V3.21631H43.2426V20.525ZM53.5502 20.525H40.4528V17.0378H53.5502V20.525Z" fill="#2D2D2D"/>
<path d="M61.7147 20.7835C60.4098 20.809 59.1139 20.5624 57.9096 20.0593C56.8433 19.6083 55.9477 18.8304 55.3517 17.8378C54.7486 16.8382 54.4477 15.5807 54.4491 14.0655C54.4164 12.8128 54.7287 11.5753 55.3517 10.4881C55.9515 9.48458 56.8254 8.67327 57.8706 8.1496C59.0407 7.58031 60.3298 7.29898 61.6306 7.32909C62.9038 7.30162 64.168 7.54859 65.3373 8.0532C66.3528 8.50095 67.2104 9.24347 67.7988 10.1845C68.3841 11.124 68.6768 12.2652 68.6768 13.6081C68.6768 13.8317 68.6768 14.0388 68.6501 14.2235C68.6235 14.4081 68.607 14.6194 68.5742 14.8388H56.9599V12.7876H65.8481L64.9681 14.0532V13.0993C64.9681 12.1175 64.7014 11.4112 64.1681 10.9804C63.6347 10.5496 62.765 10.3342 61.5588 10.3342C60.2501 10.3342 59.3373 10.5879 58.8204 11.0953C58.3035 11.6026 58.045 12.4081 58.045 13.5117V14.4942C58.045 15.5964 58.3035 16.4012 58.8204 16.9086C59.3373 17.4159 60.259 17.6703 61.5855 17.6717C62.7219 17.6717 63.5226 17.5253 63.9876 17.2327C64.2069 17.104 64.3875 16.9185 64.5103 16.6957C64.633 16.473 64.6934 16.2212 64.685 15.967V15.7086H68.5599V15.9917C68.5695 16.8919 68.268 17.7679 67.7065 18.4717C67.0766 19.2404 66.2511 19.825 65.3168 20.164C64.1657 20.5949 62.9437 20.805 61.7147 20.7835Z" fill="#2D2D2D"/>
<path d="M74.0612 20.7835C72.6663 20.7835 71.5723 20.4738 70.7792 19.8543C70.395 19.5566 70.0877 19.1713 69.8829 18.7306C69.6781 18.2899 69.5817 17.8066 69.6017 17.321C69.5841 16.7278 69.7456 16.143 70.0653 15.643C70.4151 15.1444 70.8986 14.7548 71.4602 14.5189C72.2001 14.2038 72.9852 14.0072 73.7863 13.9364L79.5976 13.3435V15.5651L74.8366 16.1025C74.4771 16.1052 74.1242 16.199 73.811 16.3753C73.7025 16.4515 73.6157 16.5545 73.5589 16.6742C73.5021 16.7939 73.4773 16.9263 73.4868 17.0584C73.4766 17.2096 73.5098 17.3606 73.5825 17.4936C73.6552 17.6266 73.7643 17.7361 73.8971 17.8092C74.2939 17.988 74.7283 18.0676 75.1627 18.041C75.9374 18.0594 76.711 17.9725 77.4622 17.7825C77.9977 17.6515 78.4798 17.3585 78.8427 16.9435C79.1816 16.4953 79.3509 15.9416 79.3207 15.3805L79.6838 15.3538V17.5507H79.3207C79.0436 18.5299 78.4137 19.3717 77.5525 19.9138C76.6718 20.4923 75.508 20.7822 74.0612 20.7835ZM83.1545 20.5251H79.5381V17.4482L79.333 17.3969V12.8841C79.333 12.041 79.1279 11.4728 78.7012 11.1794C78.2745 10.8861 77.5525 10.7405 76.5186 10.7405C75.5354 10.7405 74.8291 10.8868 74.3997 11.1794C73.9703 11.4721 73.7549 11.989 73.7535 12.7302V12.8328H69.8561V12.7548C69.8381 11.7462 70.1357 10.7572 70.7074 9.92611C71.3177 9.0749 72.155 8.41242 73.1238 8.01432C74.29 7.53429 75.5429 7.30101 76.8038 7.32918C78.252 7.32918 79.4451 7.56167 80.3833 8.02662C81.2674 8.44228 81.9991 9.12448 82.4756 9.9774C82.9491 10.89 83.1841 11.9075 83.1586 12.9353L83.1545 20.5251Z" fill="#2D2D2D"/>
<path d="M88.7362 20.5251H84.8613V7.58156H88.4511V11.2739L88.7362 11.4031V20.5251ZM88.7362 13.0339H87.9608V11.0175H88.6788C88.7874 10.3439 89.0294 9.69886 89.3906 9.12003C89.7434 8.56056 90.2391 8.10527 90.8264 7.80105C91.508 7.46461 92.2616 7.3005 93.0213 7.3231C94.0046 7.3231 94.793 7.52823 95.3865 7.93849C95.9747 8.33837 96.4293 8.90582 96.6911 9.5672C96.974 10.2953 97.1133 11.0713 97.1013 11.8523V13.9898H93.2306V12.6462C93.2306 11.9228 93.0712 11.4017 92.7526 11.0831C92.4326 10.7652 91.8788 10.6052 91.087 10.6052C90.2254 10.6052 89.6182 10.8034 89.2654 11.2C88.9126 11.5966 88.7362 12.2051 88.7362 13.0257V13.0339Z" fill="#2D2D2D"/>
<path d="M102.117 20.5251H98.2422V7.58156H101.834V11.6123L102.117 11.7416V20.5251ZM112.554 20.5251H108.679V13.7559C108.679 12.7057 108.438 11.9535 107.957 11.4995C107.476 11.0455 106.64 10.8178 105.45 10.8164C104.22 10.8164 103.346 11.0708 102.853 11.5775C102.361 12.0841 102.117 12.8903 102.117 13.9939H101.627L101.342 11.5651H102.066C102.189 10.8375 102.452 10.1408 102.841 9.51387C103.257 8.8489 103.841 8.30493 104.533 7.93643C105.266 7.52617 106.2 7.32104 107.336 7.32104C108.506 7.32104 109.479 7.54943 110.254 8.00618C111.003 8.43432 111.607 9.07747 111.986 9.85233C112.374 10.6666 112.568 11.5596 112.554 12.4616V20.5251Z" fill="#2D2D2D"/>
<path d="M121.13 20.7835C119.828 20.808 118.535 20.5614 117.333 20.0594C116.267 19.6083 115.371 18.8305 114.775 17.8378C114.172 16.8382 113.87 15.5807 113.87 14.0655C113.838 12.8127 114.151 11.5751 114.775 10.4881C115.374 9.48417 116.248 8.67272 117.294 8.14963C118.464 7.58018 119.753 7.29884 121.054 7.32911C122.327 7.30184 123.591 7.5488 124.761 8.05322C125.776 8.50097 126.634 9.24349 127.222 10.1845C127.806 11.124 128.099 12.2652 128.1 13.6081C128.1 13.8317 128.09 14.0389 128.073 14.2235C128.057 14.4081 128.03 14.6194 127.996 14.8389H116.371V12.7876H125.257L124.379 14.0532V13.0994C124.379 12.1175 124.112 11.4112 123.579 10.9804C123.046 10.5496 122.176 10.3342 120.97 10.3342C119.661 10.3342 118.748 10.5879 118.231 11.0953C117.715 11.6026 117.456 12.4081 117.456 13.5117V14.4942C117.456 15.5965 117.715 16.4013 118.231 16.9086C118.748 17.416 119.669 17.6703 120.994 17.6717C122.131 17.6717 122.932 17.5254 123.399 17.2327C123.618 17.104 123.799 16.9185 123.921 16.6958C124.044 16.473 124.104 16.2213 124.096 15.9671V15.7086H127.971V15.9917C127.98 16.8919 127.679 17.7679 127.118 18.4717C126.488 19.2404 125.662 19.825 124.728 20.164C123.578 20.5943 122.357 20.8045 121.13 20.7835Z" fill="#2D2D2D"/>
<path d="M133.04 20.5251H128.365L133.53 14.1949V13.9897L128.365 7.58154H133.083L136.519 11.9487H136.724L140.057 7.58154H144.732L139.565 13.9118V14.1436L144.732 20.5251H140.014L136.578 16.1846H136.373L133.04 20.5251Z" fill="#2D2D2D"/>
<path d="M149.397 20.7836C148.002 20.7836 146.908 20.4738 146.115 19.8543C145.728 19.558 145.419 19.1733 145.212 18.7325C145.005 18.2917 144.906 17.8076 144.925 17.321C144.908 16.7276 145.07 16.1428 145.391 15.643C145.741 15.1444 146.224 14.7548 146.786 14.5189C147.526 14.2035 148.311 14.0069 149.112 13.9364L154.923 13.3435V15.5651L150.168 16.1025C149.809 16.1055 149.456 16.1994 149.143 16.3753C149.034 16.4516 148.948 16.5547 148.891 16.6744C148.835 16.7941 148.811 16.9264 148.821 17.0584C148.811 17.2096 148.844 17.3605 148.917 17.4934C148.989 17.6264 149.098 17.7359 149.231 17.8092C149.628 17.9878 150.063 18.0674 150.498 18.041C151.272 18.0595 152.045 17.9725 152.796 17.7825C153.332 17.652 153.815 17.3589 154.178 16.9435C154.517 16.4949 154.686 15.9415 154.656 15.3805L155.019 15.3538V17.5507H154.656C154.379 18.5295 153.749 19.3711 152.888 19.9138C152.005 20.4923 150.841 20.7822 149.397 20.7836ZM158.49 20.5251H154.87V17.4482L154.665 17.3969V12.8841C154.665 12.0417 154.454 11.4735 154.033 11.1794C153.612 10.8854 152.883 10.7391 151.848 10.7405C150.868 10.7405 150.162 10.8868 149.731 11.1794C149.301 11.4721 149.085 11.989 149.085 12.7302V12.8328H145.188V12.7548C145.17 11.746 145.469 10.7571 146.041 9.92612C146.651 9.07497 147.487 8.41247 148.455 8.01432C149.625 7.53274 150.883 7.29943 152.148 7.32919C153.593 7.32919 154.786 7.56167 155.725 8.02663C156.61 8.44112 157.342 9.12362 157.817 9.9774C158.293 10.8894 158.528 11.9073 158.503 12.9353L158.49 20.5251Z" fill="#2D2D2D"/>
</g>
<defs>
<clipPath id="clip0_2259_2733">
<rect width="158.486" height="24" fill="white"/>
</clipPath>
</defs>
</svg>
