<svg width="20" height="20" viewBox="0 0 20 20" fill="none" xmlns="http://www.w3.org/2000/svg">
<path d="M15.4496 12.5862C15.3376 12.6982 15.1844 12.7689 15.0076 12.7689C14.6659 12.7689 14.383 12.4861 14.383 12.1443L14.383 5.61533L7.85408 5.61533C7.51231 5.61533 7.22947 5.33249 7.22947 4.99072C7.22947 4.64895 7.51231 4.36611 7.85408 4.36611L15.0076 4.36611C15.3494 4.36611 15.6323 4.64895 15.6323 4.99072L15.6323 12.1443C15.6323 12.3211 15.5615 12.4743 15.4496 12.5862Z" fill="#F7F7F7"/>
<path d="M15.3494 5.53307L5.43227 15.4502C5.19068 15.6918 4.78998 15.6918 4.54839 15.4502C4.30679 15.2086 4.30679 14.808 4.54839 14.5664L14.4656 4.64919C14.7072 4.40759 15.1078 4.40759 15.3494 4.64919C15.591 4.89078 15.591 5.29148 15.3494 5.53307Z" fill="#F7F7F7"/>
</svg>
