<svg width="24" height="24" viewBox="0 0 24 24" fill="none" xmlns="http://www.w3.org/2000/svg">
<g clip-path="url(#clip0_27_2749)">
<path d="M18.8333 5.67533C18.8333 5.62883 18.8149 5.58424 18.782 5.55135C18.7491 5.51847 18.7045 5.5 18.658 5.5H18.3413C18.2948 5.5 18.2503 5.51847 18.2174 5.55135C18.1845 5.58424 18.166 5.62883 18.166 5.67533V13.3253C18.166 13.422 18.244 13.5007 18.3413 13.5007H18.658C18.681 13.5007 18.7038 13.4961 18.7251 13.4873C18.7464 13.4785 18.7657 13.4656 18.782 13.4493C18.7983 13.433 18.8112 13.4137 18.82 13.3924C18.8288 13.3712 18.8333 13.3484 18.8333 13.3253V5.67533Z" fill="#66757F"/>
<path d="M18.5 14.1667C19.0523 14.1667 19.5 13.719 19.5 13.1667C19.5 12.6145 19.0523 12.1667 18.5 12.1667C17.9477 12.1667 17.5 12.6145 17.5 13.1667C17.5 13.719 17.9477 14.1667 18.5 14.1667Z" fill="#F19020"/>
<path d="M18.4999 15.5001C18.8681 15.5001 19.1666 15.2016 19.1666 14.8334C19.1666 14.4652 18.8681 14.1667 18.4999 14.1667C18.1317 14.1667 17.8333 14.4652 17.8333 14.8334C17.8333 15.2016 18.1317 15.5001 18.4999 15.5001Z" fill="#F19020"/>
<path d="M22.1667 5.50008H19.4141L6.63075 0.193415L6.62941 0.192748H6.62875C6.61808 0.188081 6.60741 0.189415 6.59741 0.186081C6.56608 0.176748 6.53475 0.166748 6.50008 0.166748H6.49875C6.45528 0.166852 6.41225 0.175458 6.37208 0.192081C6.34242 0.206197 6.31502 0.224618 6.29075 0.246748C6.28275 0.252748 6.27341 0.256081 6.26608 0.263415C6.23461 0.294622 6.20968 0.331791 6.19275 0.372748C6.19008 0.378748 6.19075 0.386748 6.18875 0.392748L2.49475 5.59941L2.49075 5.60875C2.3935 5.66625 2.31264 5.74775 2.25591 5.84546C2.19918 5.94316 2.16848 6.05378 2.16675 6.16675V7.50008C2.16675 7.67689 2.23699 7.84646 2.36201 7.97149C2.48703 8.09651 2.6566 8.16675 2.83341 8.16675H3.83008L1.35408 22.6667H0.166748V24.0001H12.8054V22.6667H11.6454L9.17008 8.16675H22.1667C22.3436 8.16675 22.5131 8.09651 22.6382 7.97149C22.7632 7.84646 22.8334 7.67689 22.8334 7.50008V6.16675C22.8334 5.98994 22.7632 5.82037 22.6382 5.69534C22.5131 5.57032 22.3436 5.50008 22.1667 5.50008ZM7.65408 8.16675L6.50008 9.09275L5.34675 8.16675H7.65408ZM6.50008 14.2001L8.94475 15.8027L6.50008 17.1361L4.05541 15.8027L6.50008 14.2001ZM4.07408 14.6734L4.39008 12.8174L5.63408 13.6327L4.07408 14.6734ZM7.36608 13.6327L8.61275 12.8161L8.93075 14.6754L7.36608 13.6327ZM6.50008 13.0554L4.61475 11.7987L6.50008 10.2507L8.38541 11.7987L6.50008 13.0554ZM4.79141 10.4641L5.03275 9.04608L5.78675 9.66475L4.79141 10.4641ZM7.21341 9.66541L7.96808 9.04608L8.21075 10.4661L7.21341 9.66541ZM3.38208 5.50008L6.16675 1.57475V4.16675H4.83341C4.6566 4.16675 4.48703 4.23699 4.36201 4.36201C4.23699 4.48703 4.16675 4.6566 4.16675 4.83342V5.50008H3.38208ZM3.73541 16.6587L5.55541 17.6514L3.36208 18.8474L3.73541 16.6587ZM10.2954 22.6667H2.71141L3.16875 19.9841L6.50008 18.1667L9.83741 19.9874L10.2954 22.6667ZM9.26875 16.6567L9.64341 18.8507L7.44475 17.6514L9.26875 16.6567ZM8.83341 5.50008V4.83342C8.83341 4.6566 8.76318 4.48703 8.63815 4.36201C8.51313 4.23699 8.34356 4.16675 8.16675 4.16675H6.83341V0.999415L17.6754 5.50008H8.83341ZM10.1667 7.50008H9.39341V6.16675H10.1667V7.50008ZM12.1667 7.50008H10.8334V6.16675H12.1667V7.50008ZM14.1667 7.50008H12.8334V6.16675H14.1667V7.50008ZM16.1667 7.50008H14.8334V6.16675H16.1667V7.50008ZM18.1667 7.50008H16.8334V6.16675H18.1667V7.50008ZM20.1667 7.50008H18.8334V6.16675H20.1667V7.50008ZM22.1667 7.16675C22.1667 7.25515 22.1316 7.33994 22.0691 7.40245C22.0066 7.46496 21.9218 7.50008 21.8334 7.50008H20.8334V6.16675H21.8334C21.9218 6.16675 22.0066 6.20187 22.0691 6.26438C22.1316 6.32689 22.1667 6.41168 22.1667 6.50008V7.16675Z" fill="#BD2032"/>
<path d="M8.16675 4.83325H6.83341C6.6566 4.83325 6.48703 4.90349 6.36201 5.02851C6.23699 5.15354 6.16675 5.32311 6.16675 5.49992V6.83325C6.16675 7.01006 6.23699 7.17963 6.36201 7.30466C6.48703 7.42968 6.6566 7.49992 6.83341 7.49992H8.83341V4.83325H8.16675Z" fill="#4B545D"/>
<path d="M7.5 4.83325H8.83333V7.49992H7.5V4.83325Z" fill="#CDD7DF"/>
<path d="M23.2294 15.9999V15.3333H13.7708V15.9999H14.3334V17.6459H13.7708V18.3126H23.2294V17.6459H22.6668V15.9999H23.2294Z" fill="#66757F"/>
</g>
<defs>
<clipPath id="clip0_27_2749">
<rect width="24" height="24" fill="white"/>
</clipPath>
</defs>
</svg>
