<svg width="69" height="24" viewBox="0 0 69 24" fill="none" xmlns="http://www.w3.org/2000/svg">
<mask id="path-1-inside-1_27_2823" fill="white">
<path d="M0 0H69V24H0V0Z"/>
</mask>
<path d="M69 0H68V24H69H70V0H69Z" fill="#999999" mask="url(#path-1-inside-1_27_2823)"/>
<g clip-path="url(#clip0_27_2823)">
<path d="M0.75 12C0.75 16.9124 3.9 21.0749 8.25 22.6124V1.38745C3.9 2.92495 0.75 7.08745 0.75 12ZM23.25 12C23.25 7.08745 20.1375 2.92495 15.75 1.38745V22.6124C20.1375 21.0749 23.25 16.9124 23.25 12Z" fill="#83BF4F"/>
<path d="M8.25 22.6125C9.4125 23.025 10.6875 23.25 12 23.25C13.3125 23.25 14.5875 23.025 15.75 22.6125V1.3875C14.5875 0.975 13.3125 0.75 12 0.75C10.6875 0.75 9.4125 0.975 8.25 1.3875V22.6125Z" fill="#F9F9F9"/>
</g>
<path d="M31.792 16.348V9.372H32.992V16.348H31.792ZM28.736 13.42V12.284H36.048V13.42H28.736ZM37.4849 17.5V16.556C38.2529 15.9587 38.9782 15.356 39.6609 14.748C40.3435 14.14 40.9515 13.5373 41.4849 12.94C42.0182 12.332 42.4342 11.74 42.7329 11.164C43.0422 10.588 43.1969 10.0333 43.1969 9.5C43.1969 9.10533 43.1275 8.74267 42.9889 8.412C42.8502 8.07067 42.6315 7.79333 42.3329 7.58C42.0342 7.36667 41.6235 7.26 41.1009 7.26C40.6102 7.26 40.1942 7.372 39.8529 7.596C39.5222 7.80933 39.2715 8.09733 39.1009 8.46C38.9409 8.812 38.8609 9.20133 38.8609 9.628H37.5649C37.5755 8.892 37.7355 8.26267 38.0449 7.74C38.3542 7.20667 38.7755 6.80133 39.3089 6.524C39.8422 6.24667 40.4449 6.108 41.1169 6.108C41.7889 6.108 42.3809 6.236 42.8929 6.492C43.4049 6.73733 43.8049 7.10533 44.0929 7.596C44.3915 8.08667 44.5409 8.70533 44.5409 9.452C44.5409 9.97467 44.4342 10.4973 44.2209 11.02C44.0075 11.5427 43.7195 12.0547 43.3569 12.556C42.9942 13.0467 42.5889 13.5213 42.1409 13.98C41.7035 14.4387 41.2502 14.8707 40.7809 15.276C40.3222 15.6813 39.8849 16.0493 39.4689 16.38H44.9249V17.5H37.4849ZM50.048 17.692C49.3333 17.692 48.6827 17.564 48.096 17.308C47.52 17.0413 47.0613 16.6467 46.72 16.124C46.3787 15.6013 46.1973 14.9507 46.176 14.172H47.536C47.5467 14.5987 47.648 14.9933 47.84 15.356C48.0427 15.708 48.3307 15.9907 48.704 16.204C49.0773 16.4173 49.5253 16.524 50.048 16.524C50.5707 16.524 51.008 16.4227 51.36 16.22C51.712 16.0173 51.9787 15.7507 52.16 15.42C52.3413 15.0787 52.432 14.7 52.432 14.284C52.432 13.7613 52.304 13.34 52.048 13.02C51.8027 12.6893 51.4667 12.444 51.04 12.284C50.624 12.124 50.1653 12.044 49.664 12.044H48.832V10.908H49.664C50.4 10.908 50.9707 10.7427 51.376 10.412C51.792 10.0707 52 9.60133 52 9.004C52 8.51333 51.8347 8.10267 51.504 7.772C51.184 7.44133 50.6987 7.276 50.048 7.276C49.4187 7.276 48.9173 7.45733 48.544 7.82C48.1707 8.18267 47.9573 8.64667 47.904 9.212H46.544C46.576 8.604 46.7413 8.06533 47.04 7.596C47.3387 7.12667 47.744 6.764 48.256 6.508C48.768 6.24133 49.3653 6.108 50.048 6.108C50.7733 6.108 51.3813 6.236 51.872 6.492C52.3627 6.748 52.7307 7.08933 52.976 7.516C53.232 7.94267 53.36 8.412 53.36 8.924C53.36 9.29733 53.2907 9.65467 53.152 9.996C53.0133 10.3373 52.8053 10.636 52.528 10.892C52.2613 11.1373 51.9147 11.3133 51.488 11.42C51.9253 11.5053 52.3147 11.676 52.656 11.932C53.008 12.1773 53.2853 12.4973 53.488 12.892C53.6907 13.2867 53.792 13.7507 53.792 14.284C53.792 14.892 53.648 15.4573 53.36 15.98C53.0827 16.492 52.6667 16.908 52.112 17.228C51.5573 17.5373 50.8693 17.692 50.048 17.692ZM60.7495 17.5V15.1H55.0695V14.06L60.5095 6.3H62.0775V13.916H63.7415V15.1H62.0775V17.5H60.7495ZM56.5575 13.916H60.8135V7.788L56.5575 13.916Z" fill="#191919"/>
<defs>
<clipPath id="clip0_27_2823">
<rect width="24" height="24" fill="white"/>
</clipPath>
</defs>
</svg>
