<svg width="40" height="40" viewBox="0 0 40 40" fill="none" xmlns="http://www.w3.org/2000/svg">
<g clip-path="url(#clip0_27_2805)">
<path d="M25.6812 23.4856C24.115 22.8862 24.1369 22.2231 23.5631 21.5818C23.5806 21.5743 23.5925 21.5612 23.5925 21.5299L23.5037 21.5118C23.0312 20.9574 22.8487 20.4156 22.8269 19.9431C22.8494 19.4674 23.0312 18.9281 23.5037 18.3743L23.5925 18.3562C23.5925 18.3256 23.58 18.3131 23.5631 18.3043C24.1369 17.6606 24.115 17.0006 25.6812 16.4006C31.8381 14.0474 30.5694 1.67432 30.5694 1.67432H10.305C10.305 1.67432 9.03811 14.0468 15.1937 16.4006C16.7612 16.9999 16.7381 17.6631 17.3119 18.3043C17.2944 18.3131 17.2837 18.3256 17.2837 18.3562L17.3725 18.3743C17.8425 18.9287 18.0262 19.4681 18.0494 19.9431C18.0256 20.4156 17.8425 20.9574 17.3725 21.5118L17.2837 21.5299C17.2837 21.5612 17.295 21.5743 17.3119 21.5818C16.7381 22.2256 16.7612 22.8862 15.1937 23.4856C9.03811 25.8387 10.305 38.2118 10.305 38.2118H30.5694C30.5694 38.2118 31.8375 25.8387 25.6812 23.4856Z" fill="#F4CD88"/>
<path d="M19.1257 23.4855C20.692 22.8861 20.212 22.1399 20.7845 21.4968L20.8645 20.9005C21.3345 20.3468 20.4151 20.4155 20.4382 19.943C20.4151 19.4674 21.7732 18.928 21.3014 18.3743L21.2139 18.3561C21.2139 18.3255 21.2264 18.313 21.2407 18.3043C20.667 17.6605 20.692 17.0005 19.1251 16.4005C12.9689 14.0474 17.2376 1.61426 17.2376 1.61426L10.3001 1.67426C10.3001 1.67426 9.03323 14.0468 15.1888 16.4005C16.7564 16.9999 16.7332 17.663 17.307 18.3043C17.2895 18.313 17.2789 18.3255 17.2789 18.3561L17.3676 18.3743C17.8376 18.9286 18.0214 19.468 18.0445 19.943C18.0207 20.4155 17.8376 20.9574 17.3676 21.5118L17.2789 21.5299C17.2789 21.5611 17.2901 21.5743 17.307 21.5818C16.7332 22.2255 16.7564 22.8861 15.1888 23.4855C9.03323 25.8386 10.3001 38.2118 10.3001 38.2118L16.5407 38.2205C16.5407 38.2205 12.9639 25.8386 19.1207 23.4855" fill="#CEA76B"/>
<path d="M26.3313 14.7861H14.5444C14.5444 14.7861 19.9169 17.228 19.9488 23.113C19.9338 23.3299 19.9007 23.5993 19.8563 23.8861C20.5101 25.3968 20.6763 27.1236 20.3288 28.7043C20.5607 30.3236 20.5713 31.9699 20.3213 33.568C20.2119 34.6749 20.0026 35.7661 19.6663 36.8111H21.8951C20.8419 32.8949 20.9001 28.6486 21.1501 24.6424C21.0355 24.139 20.96 23.6274 20.9244 23.1124C20.9576 17.228 26.3313 14.7861 26.3313 14.7861Z" fill="#D78C2A"/>
<path d="M32.1251 1.08C32.1251 1.67875 31.5863 2.16313 30.9232 2.16313H9.95633C9.29258 2.16313 8.75195 1.67875 8.75195 1.08C8.75195 0.48375 9.29258 0 9.95633 0H30.9238C31.5863 0 32.1251 0.48375 32.1251 1.08ZM32.1251 39.0375C32.1251 39.6319 31.5863 40.1175 30.9232 40.1175H9.95633C9.29258 40.1175 8.75195 39.6319 8.75195 39.0375C8.75195 38.4388 9.29258 37.955 9.95633 37.955H30.9238C31.5863 37.955 32.1251 38.4388 32.1251 39.0375Z" fill="#4F2A9D"/>
<path d="M21.0511 21.6425C21.0511 21.6425 20.9168 34.2981 23.2536 36.8118H20.593L20.2705 20.7981L21.0511 21.6425Z" fill="#4F2A9D"/>
<path d="M21.3624 32.0999C19.7124 29.7205 19.5649 26.3474 21.0224 23.9562C20.9755 23.643 20.9412 23.3499 20.9262 23.1174C20.958 17.2324 26.3318 14.7905 26.3318 14.7905H14.5449C14.5449 14.7905 19.9174 17.2324 19.9493 23.1174C19.9147 23.6326 19.8393 24.1442 19.7237 24.6474C19.9724 28.6505 20.0318 32.8999 18.9787 36.8162H22.5087C22.3669 36.0579 22.2429 35.2965 22.1368 34.5324C21.7452 33.7712 21.4834 32.9499 21.3624 32.1024" fill="#4F2A9D"/>
<path d="M19.8236 21.6425C19.8236 21.6425 19.958 34.2981 17.6211 36.8118H20.2817L20.6055 20.7981L19.8236 21.6425Z" fill="#4F2A9D"/>
</g>
<defs>
<clipPath id="clip0_27_2805">
<rect width="40" height="40" fill="white"/>
</clipPath>
</defs>
</svg>
