<svg width="25" height="24" viewBox="0 0 25 24" fill="none" xmlns="http://www.w3.org/2000/svg">
<g clip-path="url(#clip0_27_2735)">
<path d="M4.64055 21.5045V20.2338C4.64055 19.7465 4.34397 19.4289 3.8356 19.4289C3.58147 19.4289 3.30611 19.5136 3.11546 19.789C2.96726 19.556 2.75548 19.4289 2.43776 19.4289C2.22589 19.4289 2.01421 19.4924 1.84469 19.7254V19.4713H1.3999V21.5045H1.84469V20.382C1.84469 20.022 2.03534 19.8525 2.33192 19.8525C2.62832 19.8525 2.77671 20.0431 2.77671 20.382V21.5045H3.22149V20.382C3.22149 20.022 3.43317 19.8525 3.70853 19.8525C4.00512 19.8525 4.15332 20.0431 4.15332 20.382V21.5045H4.64055ZM11.2275 19.4713H10.5075V18.8571H10.0627V19.4713H9.66024V19.8736H10.0626V20.8056C10.0626 21.2716 10.2532 21.5469 10.7616 21.5469C10.9522 21.5469 11.1639 21.4834 11.3123 21.3987L11.1851 21.0174C11.0581 21.1021 10.9099 21.1233 10.8039 21.1233C10.5922 21.1233 10.5075 20.9963 10.5075 20.7844V19.8736H11.2275V19.4713ZM14.9977 19.4288C14.7435 19.4288 14.5741 19.556 14.4682 19.7254V19.4713H14.0234V21.5045H14.4682V20.3608C14.4682 20.022 14.6164 19.8313 14.8917 19.8313C14.9764 19.8313 15.0824 19.8526 15.1671 19.8737L15.2941 19.4501C15.2094 19.4289 15.0824 19.4289 14.9977 19.4289M9.30017 19.6408C9.0883 19.4925 8.79181 19.429 8.47409 19.429C7.96582 19.429 7.62697 19.6831 7.62697 20.0856C7.62697 20.4245 7.88111 20.6151 8.32589 20.6786L8.53767 20.6999C8.77068 20.7421 8.89774 20.8057 8.89774 20.9116C8.89774 21.0598 8.72832 21.1658 8.43173 21.1658C8.13515 21.1658 7.90224 21.0598 7.75394 20.954L7.54217 21.2929C7.77517 21.4623 8.09289 21.547 8.41051 21.547C9.00359 21.547 9.34253 21.2717 9.34253 20.8904C9.34253 20.5304 9.06717 20.3397 8.64351 20.2762L8.43173 20.255C8.24109 20.2338 8.09289 20.1915 8.09289 20.0644C8.09289 19.9161 8.24108 19.8314 8.47409 19.8314C8.72832 19.8314 8.98246 19.9373 9.10952 20.0009L9.30017 19.6408ZM21.1188 19.429C20.8646 19.429 20.6951 19.5561 20.5892 19.7255V19.4714H20.1444V21.5046H20.5892V20.3609C20.5892 20.0221 20.7375 19.8314 21.0128 19.8314C21.0976 19.8314 21.2035 19.8527 21.2882 19.8738L21.4153 19.4502C21.3306 19.429 21.2035 19.429 21.1188 19.429ZM15.4424 20.488C15.4424 21.1022 15.866 21.547 16.5227 21.547C16.8191 21.547 17.0309 21.4835 17.2427 21.3141L17.0309 20.954C16.8615 21.0811 16.6921 21.1446 16.5014 21.1446C16.1414 21.1446 15.8872 20.8904 15.8872 20.488C15.8872 20.1068 16.1414 19.8526 16.5014 19.8314C16.6921 19.8314 16.8615 19.8949 17.0309 20.0221L17.2427 19.662C17.0309 19.4925 16.8191 19.429 16.5227 19.429C15.866 19.429 15.4424 19.8738 15.4424 20.488ZM19.5514 20.488V19.4714H19.1066V19.7255C18.9584 19.5349 18.7466 19.429 18.4712 19.429C17.8994 19.429 17.4546 19.8738 17.4546 20.488C17.4546 21.1022 17.8994 21.547 18.4712 21.547C18.7677 21.547 18.9796 21.4411 19.1066 21.2505V21.5046H19.5514V20.488ZM17.9205 20.488C17.9205 20.1279 18.1535 19.8314 18.5347 19.8314C18.8948 19.8314 19.149 20.1068 19.149 20.488C19.149 20.8481 18.8948 21.1446 18.5347 21.1446C18.1535 21.1233 17.9205 20.8481 17.9205 20.488ZM12.6043 19.429C12.0112 19.429 11.5876 19.8526 11.5876 20.488C11.5876 21.1234 12.0111 21.547 12.6254 21.547C12.9219 21.547 13.2185 21.4623 13.4515 21.2717L13.2396 20.954C13.0702 21.0811 12.8584 21.1658 12.6467 21.1658C12.3713 21.1658 12.0959 21.0387 12.0324 20.6785H13.5362V20.5092C13.5575 19.8526 13.1763 19.429 12.6043 19.429ZM12.6042 19.8102C12.8795 19.8102 13.0702 19.9797 13.1125 20.2974H12.0535C12.0958 20.0221 12.2865 19.8102 12.6042 19.8102ZM23.6391 20.488V18.6665H23.1943V19.7255C23.046 19.5349 22.8342 19.429 22.5589 19.429C21.987 19.429 21.5422 19.8738 21.5422 20.488C21.5422 21.1022 21.987 21.547 22.5589 21.547C22.8555 21.547 23.0672 21.4411 23.1943 21.2505V21.5046H23.6391V20.488ZM22.0083 20.488C22.0083 20.1279 22.2412 19.8314 22.6225 19.8314C22.9825 19.8314 23.2367 20.1068 23.2367 20.488C23.2367 20.8481 22.9825 21.1446 22.6225 21.1446C22.2412 21.1233 22.0083 20.8481 22.0083 20.488ZM7.13964 20.488V19.4714H6.69486V19.7255C6.54656 19.5349 6.33478 19.429 6.05942 19.429C5.48757 19.429 5.04279 19.8738 5.04279 20.488C5.04279 21.1022 5.48757 21.547 6.05942 21.547C6.35601 21.547 6.56779 21.4411 6.69486 21.2505V21.5046H7.13964V20.488ZM5.48757 20.488C5.48757 20.1279 5.72058 19.8314 6.10178 19.8314C6.46185 19.8314 6.71608 20.1068 6.71608 20.488C6.71608 20.8481 6.46185 21.1446 6.10178 21.1446C5.72058 21.1233 5.48757 20.8481 5.48757 20.488Z" fill="#0E0E0E"/>
<path d="M9.15186 4.03076H15.8236V16.0188H9.15186V4.03076Z" fill="#FF5F00"/>
<path d="M9.57566 10.0248C9.57566 7.58911 10.7194 5.42868 12.4773 4.03074C11.1854 3.01411 9.55453 2.3999 7.7754 2.3999C3.56037 2.3999 0.150391 5.80988 0.150391 10.0248C0.150391 14.2397 3.56037 17.6497 7.7753 17.6497C9.55443 17.6497 11.1853 17.0355 12.4773 16.0188C10.7194 14.6421 9.57566 12.4605 9.57566 10.0248Z" fill="#EB001B"/>
<path d="M24.8254 10.0248C24.8254 14.2396 21.4154 17.6497 17.2005 17.6497C15.4214 17.6497 13.7905 17.0355 12.4985 16.0188C14.2777 14.6209 15.4002 12.4605 15.4002 10.0248C15.4002 7.58911 14.2564 5.42868 12.4985 4.03074C13.7904 3.01411 15.4214 2.3999 17.2005 2.3999C21.4154 2.3999 24.8254 5.83111 24.8254 10.0248Z" fill="#F79E1B"/>
</g>
<defs>
<clipPath id="clip0_27_2735">
<rect width="24.704" height="19.2" fill="white" transform="translate(0.147949 2.3999)"/>
</clipPath>
</defs>
</svg>
