<svg width="38" height="38" viewBox="0 0 38 38" fill="none" xmlns="http://www.w3.org/2000/svg">
<path d="M36.06 18.5581C36.5566 17.9554 37.0368 17.3394 37.5 16.7106C37.3056 15.1531 37.0925 13.5794 36.8587 11.995L36.7781 11.9225L37.0725 11.4913L36.335 10.8212C32.69 7.51167 29.0448 4.20292 25.3994 0.895L24.4137 0L23.665 1.09812C22.3896 2.96068 21.0112 4.75055 19.5362 6.45937C19.6167 6.11771 19.705 5.76354 19.8013 5.39688C20.1956 3.9 19.7337 2.88375 19.2762 2.29562C18.4244 1.19875 16.8119 0.59375 14.7337 0.59375C8.84125 0.59375 0.31625 5.2275 0.31625 13.6056C0.31625 14.7556 1.0825 15.5594 2.17875 15.5594C2.98813 15.5594 3.92312 15.1069 4.97312 14.21C5.07188 14.5494 5.22062 14.87 5.43813 15.1425C5.85438 15.665 6.46812 15.9531 7.16687 15.9531C7.32354 15.9531 7.48479 15.939 7.65063 15.9106C7.725 16.2712 7.86125 16.6281 8.07875 16.9394C6.04628 18.4041 3.93385 19.7545 1.75125 20.9844L0.364375 21.7625L1.47125 22.7675C1.24458 22.9083 1.01833 23.0473 0.7925 23.1844C0.5425 24.3394 0.278125 25.4794 0 26.5987C4.00313 30.2337 8.00562 33.8656 12.0081 37.5C15.4932 35.6046 18.8645 33.5073 22.105 31.2188L22.1075 31.2244C22.4088 31.7475 22.9 32.105 23.5719 32.2956C22.4088 33.6388 21.9906 34.7894 22.3281 35.7288C22.5975 36.4769 23.2906 36.9237 24.1831 36.9237C32.6119 36.9237 37.2731 28.45 37.2731 22.5925C37.2731 21.1956 36.995 19.9919 36.4688 19.1125C36.349 18.9161 36.2122 18.7306 36.06 18.5581ZM19.0788 8.71313C21.0919 6.51 22.9525 4.18813 24.62 1.74188C28.2658 5.05021 31.911 8.35917 35.5556 11.6687C34.043 13.878 32.39 15.9878 30.6069 17.985C30.0294 18.1069 29.4838 18.2125 28.9837 18.2938C30.545 16.6112 32.0244 14.8644 33.3825 13.0338L33.0181 12.7031C32.615 12.3375 32.5569 11.6831 32.8763 11.2369C32.9725 11.101 33.069 10.9658 33.1656 10.8313C30.7348 8.62542 28.305 6.41979 25.8763 4.21438L25.5869 4.62C25.2669 5.065 24.6713 5.12687 24.27 4.76125L23.905 4.43187C22.355 6.52062 20.6556 8.50688 18.8444 10.4019C18.8988 9.89312 18.9744 9.3325 19.0788 8.71313ZM23.4819 14.84C22.2062 13.6812 20.42 13.4194 18.8219 13.9456C18.7738 13.6312 18.7044 12.9719 18.7362 11.9344C20.6429 10.0171 22.4257 7.98051 24.0738 5.83687C24.6944 6.15875 25.4325 6.08688 25.9775 5.64188L31.9012 11.0187C31.6225 11.705 31.69 12.51 32.0925 13.1175C30.655 14.9944 29.095 16.785 27.4438 18.5019C26.7511 18.5788 26.055 18.6195 25.3581 18.6238C25.1588 18.6238 24.9825 18.6187 24.8181 18.6119C25.0425 17.2669 24.5819 15.8381 23.4819 14.84ZM7.30125 14.7919C7.2575 14.7956 7.20875 14.805 7.1675 14.805C5.77063 14.805 5.9075 12.8031 6.05562 11.8337C6.82625 11.0662 7.55125 10.265 8.30813 9.5075C9.10688 8.69375 9.94625 7.92375 10.8906 7.31C11.8344 6.70125 12.9063 6.26938 14.0681 6.16188C12.9075 6.04188 11.6944 6.34438 10.66 6.92438C9.6125 7.49375 8.71813 8.2825 7.89563 9.10625C7.07875 9.93875 6.32937 10.8187 5.57437 11.6844C4.81375 12.5387 4.06125 13.3962 3.14312 14.1025C2.7575 14.3137 2.43375 14.4106 2.17813 14.4106C1.7125 14.4106 1.47 14.0969 1.47 13.605C1.47 5.76937 9.61188 1.74125 14.7325 1.74125C17.42 1.74125 19.2762 2.8525 18.6812 5.10625C16.9575 11.655 17.75 14.4794 17.75 14.4794C17.075 15.7387 15.7738 16.1481 15.7738 16.1481C15.0646 15.9569 14.3332 15.8613 13.5987 15.8638C12.1275 15.8638 11.0869 16.2288 11.0869 16.2288C10.5369 16.54 10.1119 16.6656 9.78375 16.6656C8.59625 16.6656 8.68625 15.0106 8.7525 14.4375C8.90958 14.3638 9.06167 14.2837 9.20875 14.1975C9.7975 13.8587 10.3175 13.4337 10.825 13.0175C11.3263 12.5937 11.8138 12.1706 12.33 11.7987C12.8481 11.4325 13.4056 11.1275 14.0669 11.005C13.8996 10.9754 13.7297 10.9643 13.56 10.9719C13.05 10.995 12.5381 11.175 12.0925 11.4169C11.4856 11.7375 10.9613 12.1613 10.4525 12.5781C9.95063 13.005 9.46438 13.4325 8.95813 13.8256C8.45375 14.2131 7.92188 14.5569 7.30125 14.7919ZM19.9531 27.6094C17.8046 29.1701 15.5682 30.6063 13.255 31.9106C9.61 28.6006 5.96562 25.2944 2.32 21.9837C4.63833 20.6768 6.87953 19.2376 9.0325 17.6731C9.26687 17.76 9.5175 17.815 9.78438 17.815C10.0577 17.8146 10.3454 17.7679 10.6475 17.675C8.91895 18.9808 7.12855 20.2026 5.2825 21.3363C5.40417 21.4467 5.52562 21.5575 5.64687 21.6687C6.04812 22.0331 5.98125 22.5725 5.49125 22.8619L5.04375 23.1238L12.3337 29.7419C12.4837 29.6544 12.6319 29.5681 12.7812 29.4781C13.2719 29.1894 13.9938 29.2431 14.3956 29.6075L14.76 29.94C16.6621 28.7702 18.505 27.5068 20.2819 26.1544C20.0448 26.6819 19.9352 27.1669 19.9531 27.6094ZM20.6987 24.6125C18.8243 26.0986 16.8728 27.4849 14.8525 28.7656C14.1825 28.4013 13.295 28.3406 12.5419 28.5944L6.6175 23.2175C7.10625 22.7231 7.18563 22.0519 6.8325 21.4881C8.99343 20.1211 11.0757 18.6336 13.0694 17.0325C13.2373 17.02 13.414 17.0133 13.5994 17.0125C14.2307 17.0103 14.8596 17.0921 15.4694 17.2556L15.5763 17.285C15.2688 18.5788 15.6369 19.9425 16.7488 20.9519C17.77 21.8781 19.1994 22.3031 20.5856 22.1956C20.7863 23.1125 20.775 23.9613 20.6987 24.6125ZM24.1825 35.7756C23.4144 35.7756 23.0856 35.1906 23.6906 34.1019C24.4 33.195 25.2594 32.4487 26.115 31.6969C26.9856 30.9469 27.8706 30.2006 28.7087 29.3894C29.5362 28.5719 30.3306 27.6838 30.9031 26.6419C31.4862 25.6137 31.7913 24.4075 31.6706 23.2537C31.5619 24.4088 31.1287 25.475 30.5156 26.4137C29.8981 27.3519 29.1231 28.1862 28.305 28.9806C27.5431 29.7319 26.7375 30.4525 25.9663 31.2181C25.6688 31.2631 25.2763 31.3069 24.8725 31.3069C23.9144 31.3069 22.9031 31.0575 22.985 29.9919C23.2213 29.3694 23.5694 28.8369 23.9606 28.3313C24.3563 27.8281 24.7863 27.345 25.2156 26.8462C25.6356 26.34 26.0619 25.8188 26.3838 25.2163C26.7075 24.6256 26.9219 23.9181 26.7981 23.2537C26.6756 23.9113 26.3688 24.4656 26.0006 24.9806C25.6269 25.4938 25.2013 25.9787 24.7738 26.4775C24.3556 26.9825 23.9275 27.4994 23.5875 28.0844C23.4996 28.2312 23.4193 28.3824 23.3469 28.5375C23.1555 28.5586 22.9632 28.5699 22.7706 28.5713C21.7944 28.5713 20.3769 28.2594 21.5444 26.2162C21.5444 26.2162 22.3131 24.0494 21.6256 21.5575C21.6256 21.5575 22.0369 20.2638 23.3031 19.5925C23.3031 19.5925 23.955 19.7731 25.3581 19.7731C26.8844 19.7731 29.3 19.5594 32.7331 18.6663C32.9957 18.5944 33.2665 18.5573 33.5387 18.5556C39.0312 18.5556 35.6794 35.7756 24.1825 35.7756Z" fill="#7D3FFF"/>
</svg>
