<svg width="25" height="24" viewBox="0 0 25 24" fill="none" xmlns="http://www.w3.org/2000/svg">
<path d="M17.5 21.25H7.5C3.85 21.25 1.75 19.15 1.75 15.5V8.5C1.75 4.85 3.85 2.75 7.5 2.75H17.5C21.15 2.75 23.25 4.85 23.25 8.5V15.5C23.25 19.15 21.15 21.25 17.5 21.25ZM7.5 4.25C4.64 4.25 3.25 5.64 3.25 8.5V15.5C3.25 18.36 4.64 19.75 7.5 19.75H17.5C20.36 19.75 21.75 18.36 21.75 15.5V8.5C21.75 5.64 20.36 4.25 17.5 4.25H7.5Z" fill="#7D3FFF"/>
<path d="M12.5 15.75C10.43 15.75 8.75 14.07 8.75 12C8.75 9.93 10.43 8.25 12.5 8.25C14.57 8.25 16.25 9.93 16.25 12C16.25 14.07 14.57 15.75 12.5 15.75ZM12.5 9.75C11.26 9.75 10.25 10.76 10.25 12C10.25 13.24 11.26 14.25 12.5 14.25C13.74 14.25 14.75 13.24 14.75 12C14.75 10.76 13.74 9.75 12.5 9.75Z" fill="#7D3FFF"/>
<path d="M19.5 7.75H16.5C16.09 7.75 15.75 7.41 15.75 7C15.75 6.59 16.09 6.25 16.5 6.25H19.5C19.91 6.25 20.25 6.59 20.25 7C20.25 7.41 19.91 7.75 19.5 7.75Z" fill="#7D3FFF"/>
<path d="M8.5 17.75H5.5C5.09 17.75 4.75 17.41 4.75 17C4.75 16.59 5.09 16.25 5.5 16.25H8.5C8.91 16.25 9.25 16.59 9.25 17C9.25 17.41 8.91 17.75 8.5 17.75Z" fill="#7D3FFF"/>
</svg>
