<svg width="16" height="16" viewBox="0 0 16 16" fill="none" xmlns="http://www.w3.org/2000/svg">
<g clip-path="url(#clip0_27_2758)">
<path d="M0.471191 8.96615L2.51369 6.95365L5.99119 6.3374L5.64744 8.1574L0.946191 9.6024L0.642441 9.47115L0.471191 8.96615Z" fill="#CA2C31"/>
<path d="M2.8674 7.46993L0.649902 9.48493L2.28115 10.2799L4.7574 9.01618V8.41993L5.26365 7.05493L2.8674 7.46993ZM8.1149 11.0187L7.04365 11.4837L6.0324 13.6274C6.0324 13.6274 6.9224 15.5987 6.9624 15.5987C7.0024 15.5987 7.50865 15.6387 7.50865 15.6387L9.30865 13.6262L9.76365 10.1887L8.1149 11.0187Z" fill="#A02422"/>
<path d="M7.06252 12.6051C7.06252 12.6051 7.65877 12.4839 8.08377 12.2814C8.50877 12.0789 9.03377 11.7764 9.03377 11.7764L8.84127 13.4551L6.96002 15.5964C6.96002 15.5964 6.88627 15.5051 6.57377 14.8251C6.32502 14.2826 6.23877 14.0889 6.23877 14.0889L7.06252 12.6051Z" fill="#CA2C31"/>
<path d="M3.94742 10.0825C3.94742 10.0825 3.22992 10.0225 2.44367 11.0162C1.72617 11.9237 1.38992 13.4012 1.25992 13.7812C1.12992 14.1612 0.818672 14.2387 0.922422 14.4125C1.02617 14.5862 1.47492 14.5762 2.02867 14.5075C2.58242 14.4387 3.05742 14.265 3.05742 14.265C3.05742 14.265 3.03367 14.325 2.95367 14.455C2.92492 14.5012 2.82492 14.5675 2.83242 14.6362C2.84992 14.8 4.25242 14.8037 5.37242 13.6512C6.58242 12.4075 5.99492 11.3875 5.99492 11.3875L3.94742 10.0825Z" fill="#F7D74D"/>
<path d="M4.16382 10.6611C4.16382 10.6611 3.39007 10.7024 2.75007 11.6961C2.11007 12.6899 1.81257 13.8411 1.87382 13.9186C1.93382 13.9961 3.12632 13.5649 3.41257 13.6511C3.60882 13.7111 3.50757 13.9099 3.56007 13.9624C3.60382 14.0061 4.12132 14.0799 4.95882 13.1724C5.79757 12.2649 5.59882 10.9899 5.59882 10.9899L4.16382 10.6611Z" fill="#FBF0B4"/>
<path d="M4.54372 9.30493C4.54372 9.30493 4.15497 9.65118 4.01622 9.84993C3.87747 10.0487 3.87747 10.0662 3.88622 10.1262C3.89497 10.1862 4.03872 10.8449 4.63747 11.4224C5.37247 12.1312 6.02872 12.2262 6.12372 12.2262C6.21872 12.2262 6.84997 11.5174 6.84997 11.5174L4.54372 9.30493Z" fill="#858585"/>
<path d="M6.26245 11.4051C6.26245 11.4051 6.89245 11.8188 7.9487 11.4638C9.39245 10.9788 10.4512 9.89385 11.7625 8.52385C13.0275 7.20135 14.0887 5.5601 14.0887 5.5601L13.345 3.06885L6.26245 11.4051Z" fill="#437687"/>
<path d="M8.49878 10.0412L8.67253 9.50122L9.10753 9.56247C9.10753 9.56247 9.43878 9.71872 9.68253 9.83247C9.92628 9.94622 10.24 10.0325 10.24 10.0325L9.62128 10.555C9.62128 10.555 9.28378 10.4275 9.03753 10.32C8.76003 10.1987 8.49878 10.0412 8.49878 10.0412Z" fill="#3F545F"/>
<path d="M10.54 2.01758C10.54 2.01758 9.33749 2.71508 7.61374 4.34633C6.05999 5.81633 4.90874 7.14633 4.62999 8.27758C4.39749 9.22508 4.52124 9.80008 5.04999 10.4213C5.60874 11.0788 6.26374 11.4051 6.26374 11.4051C6.26374 11.4051 6.75623 11.4126 8.81123 9.83133C11.375 7.85758 13.4287 4.55258 13.4287 4.55258L10.54 2.01758Z" fill="#8DAFBF"/>
<path d="M13.0225 5.22998C13.0225 5.22998 11.9762 4.78373 11.23 3.74248C10.4887 2.70873 10.5475 2.00998 10.5475 2.00998C10.5475 2.00998 11.1675 1.52373 12.5612 0.967478C13.4987 0.593728 14.775 0.402478 15.195 0.713728C15.615 1.02498 14.9075 2.58623 14.9075 2.58623L13.6187 5.08123L13.0225 5.22998Z" fill="#D83F22"/>
<path d="M8.52123 10.0499C8.52123 10.0499 7.61748 9.58863 7.04248 8.93238C5.95498 7.69363 5.72998 6.33363 5.72998 6.33363L6.27623 5.69238C6.27623 5.69238 6.41248 7.13738 7.57873 8.38613C8.33873 9.19988 9.13248 9.57238 9.13248 9.57238C9.13248 9.57238 8.97373 9.70613 8.80373 9.83613C8.69498 9.91988 8.52123 10.0499 8.52123 10.0499Z" fill="#6896A5"/>
<path d="M14.0887 5.55988C14.0887 5.55988 14.6312 4.90613 15.145 3.43238C15.8625 1.37738 15.2375 0.754883 15.2375 0.754883C15.2375 0.754883 15.0262 1.73238 14.2925 3.09113C13.7037 4.17988 12.9912 5.21613 12.9912 5.21613C12.9912 5.21613 13.3837 5.39238 13.5962 5.45363C13.8637 5.53113 14.0887 5.55988 14.0887 5.55988Z" fill="#A02422"/>
<path d="M4.97634 8.70761C5.13884 8.86261 5.38509 8.70011 5.54634 8.32011C5.70884 7.94011 5.70634 7.72761 5.58134 7.63761C5.42634 7.52511 5.16634 7.77136 5.05259 7.99011C4.92759 8.23261 4.85384 8.59011 4.97634 8.70761ZM10.6188 2.51636C10.6188 2.51636 9.66759 3.20011 8.65259 4.13011C7.72134 4.98386 7.10384 5.65136 7.01884 5.80636C6.92884 5.97261 6.92759 6.20761 6.99759 6.32761C7.06759 6.44761 7.22259 6.51011 7.36384 6.40511C7.50509 6.29886 8.51134 5.18636 9.42009 4.39136C10.2513 3.66386 10.8926 3.20261 10.8926 3.20261C10.8926 3.20261 11.1526 2.74261 11.1101 2.63761C11.0676 2.53136 10.6188 2.51636 10.6188 2.51636Z" fill="#B3E1EE"/>
<path d="M10.6187 2.51632C10.6187 2.51632 11.3212 1.97757 12.0862 1.59882C12.7974 1.24632 13.5049 0.952568 13.6324 1.20757C13.7537 1.45007 12.9612 1.78007 12.2637 2.22507C11.5662 2.67007 10.8949 3.20132 10.8949 3.20132C10.8949 3.20132 10.7924 3.01382 10.7262 2.84007C10.6842 2.73428 10.6483 2.62619 10.6187 2.51632Z" fill="#ED6A65"/>
<path d="M11.1986 4.90615C10.5024 4.2649 9.53364 4.4374 9.05614 5.0074C8.56614 5.5949 8.60239 6.4924 9.18114 7.0324C9.70739 7.5224 10.6861 7.63365 11.2761 6.94615C11.8011 6.33615 11.7686 5.4299 11.1986 4.90615Z" fill="#E1E1E1"/>
<path d="M9.41629 5.23379C9.00254 5.64004 9.02504 6.44504 9.51754 6.81254C9.94754 7.13379 10.5575 7.11754 10.94 6.72629C11.3225 6.33504 11.3225 5.62379 10.9638 5.25629C10.5513 4.83504 9.89004 4.76879 9.41629 5.23379Z" fill="#3F545F"/>
<path d="M6.24994 9.61122C6.24994 9.61122 7.02369 8.82622 7.10869 8.91122C7.19369 8.99622 7.18244 9.47247 6.81244 10.0025C6.44119 10.5325 5.62494 11.4762 4.97869 12.1125C4.34119 12.7387 3.44244 13.455 3.35744 13.4425C3.29119 13.4325 3.02244 13.2987 2.91494 13.1687C2.80994 13.04 3.12369 12.4312 3.24994 12.23C3.37744 12.0287 6.24994 9.61122 6.24994 9.61122Z" fill="#A02524"/>
<path d="M2.65383 12.7312C2.64383 12.9112 2.91883 13.1737 2.91883 13.1737L7.10883 8.91245C7.10883 8.91245 6.91258 8.6912 6.33508 9.04995C5.75258 9.41245 5.24258 9.84745 4.49008 10.5762C3.44133 11.5937 2.66383 12.5512 2.65383 12.7312Z" fill="#CA2C31"/>
<path d="M2.3825 4.61874C2.24375 4.75749 2.2375 4.97999 2.3925 5.10749C2.53 5.22124 2.75375 5.14749 2.8375 5.04499C2.92125 4.94249 2.91125 4.71999 2.8 4.60999C2.68875 4.49874 2.4675 4.53499 2.3825 4.61874Z" fill="white"/>
<path opacity="0.5" d="M5.12744 4.45635C5.02244 4.5726 5.05619 4.7451 5.15369 4.80885C5.25119 4.8726 5.39744 4.86635 5.46869 4.77885C5.53244 4.7001 5.53994 4.5426 5.44244 4.4451C5.35744 4.36135 5.19494 4.38135 5.12744 4.45635Z" fill="white"/>
<path d="M6.94368 1.48618C6.94368 1.48618 7.09618 1.05118 7.18618 1.04618C7.27743 1.04118 7.40868 1.48118 7.40868 1.48118C7.40868 1.48118 7.85993 1.48618 7.88993 1.55243C7.92868 1.63743 7.60118 1.92243 7.60118 1.92243C7.60118 1.92243 7.70743 2.34743 7.65743 2.39868C7.60118 2.45493 7.21243 2.23118 7.21243 2.23118C7.21243 2.23118 6.81243 2.50993 6.72618 2.43368C6.65118 2.36743 6.80743 1.91743 6.80743 1.91743C6.80743 1.91743 6.43243 1.64368 6.45243 1.56743C6.48118 1.45993 6.94368 1.48618 6.94368 1.48618ZM12.1262 11.9162C12.2774 11.9999 12.4674 11.9524 12.5374 11.7912C12.6012 11.6474 12.4837 11.4762 12.3774 11.4299C12.2712 11.3837 12.0849 11.4449 12.0174 11.5662C11.9512 11.6862 12.0349 11.8662 12.1262 11.9162ZM14.2737 8.22993C14.1874 8.09618 14.0012 8.05243 13.8799 8.15993C13.7624 8.26493 13.7912 8.42993 13.8574 8.51368C13.9237 8.59743 14.1012 8.62868 14.2087 8.55994C14.3162 8.49119 14.3262 8.30993 14.2737 8.22993Z" fill="white"/>
</g>
<defs>
<clipPath id="clip0_27_2758">
<rect width="16" height="16" fill="white"/>
</clipPath>
</defs>
</svg>
