<svg width="25" height="24" viewBox="0 0 25 24" fill="none" xmlns="http://www.w3.org/2000/svg">
<path d="M19.5 17.75H5.5C3.08 17.75 1.75 16.42 1.75 14V10C1.75 7.58 3.08 6.25 5.5 6.25H19.5C21.92 6.25 23.25 7.58 23.25 10V14C23.25 16.42 21.92 17.75 19.5 17.75ZM5.5 7.75C3.92 7.75 3.25 8.42 3.25 10V14C3.25 15.58 3.92 16.25 5.5 16.25H19.5C21.08 16.25 21.75 15.58 21.75 14V10C21.75 8.42 21.08 7.75 19.5 7.75H5.5Z" fill="#4F2A9D"/>
<path d="M18.5 12.75C18.09 12.75 17.75 12.41 17.75 12V7C17.75 6.59 18.09 6.25 18.5 6.25C18.91 6.25 19.25 6.59 19.25 7V12C19.25 12.41 18.91 12.75 18.5 12.75Z" fill="#4F2A9D"/>
<path d="M6.5 11.75C6.09 11.75 5.75 11.41 5.75 11V7C5.75 6.59 6.09 6.25 6.5 6.25C6.91 6.25 7.25 6.59 7.25 7V11C7.25 11.41 6.91 11.75 6.5 11.75Z" fill="#4F2A9D"/>
<path d="M10.5 12.75C10.08 12.75 9.75 12.41 9.75 11.99L9.8 6.99C9.8 6.58 10.14 6.25 10.55 6.25C10.55 6.25 10.55 6.25 10.56 6.25C10.97 6.25 11.31 6.59 11.3 7.01L11.25 12.01C11.25 12.42 10.91 12.75 10.5 12.75Z" fill="#4F2A9D"/>
<path d="M14.5 10.75C14.09 10.75 13.75 10.41 13.75 10V7C13.75 6.59 14.09 6.25 14.5 6.25C14.91 6.25 15.25 6.59 15.25 7V10C15.25 10.41 14.91 10.75 14.5 10.75Z" fill="#4F2A9D"/>
</svg>
