<svg width="25" height="24" viewBox="0 0 25 24" fill="none" xmlns="http://www.w3.org/2000/svg">
<g clip-path="url(#clip0_27_2744)">
<path fill-rule="evenodd" clip-rule="evenodd" d="M8.80879 11.9999C8.80879 14.2826 6.94884 16.1331 4.65447 16.1331C2.36 16.1331 0.5 14.2826 0.5 11.9999C0.5 9.71723 2.36 7.86676 4.65447 7.86676C6.94884 7.86676 8.80879 9.71723 8.80879 11.9999Z" fill="#ED342B"/>
<path fill-rule="evenodd" clip-rule="evenodd" d="M4.654 13.7704C3.72476 11.6748 3.04342 9.71708 3.04342 9.71708H1.6189C1.6189 9.71708 2.48593 12.2298 4.09646 15.3721H5.21154C6.82207 12.2298 7.68905 9.71708 7.68905 9.71708H6.26453C6.26453 9.71708 5.58324 11.6748 4.654 13.7704Z" fill="#FEFEFE"/>
<path fill-rule="evenodd" clip-rule="evenodd" d="M22.5456 11.7847C21.7403 11.7847 21.6785 12.6474 21.6785 12.6474H23.4126C23.4126 12.6474 23.3507 11.7847 22.5456 11.7847ZM24.4656 13.51L21.6785 13.51C21.6785 13.51 21.7403 14.4345 22.9792 14.4345C23.5985 14.4345 24.2179 14.2494 24.2179 14.2494L24.3418 15.2354C24.3418 15.2354 23.7224 15.482 22.8552 15.482C21.6165 15.482 20.5016 14.8657 20.5016 13.1403C20.5016 11.7847 21.3688 10.9219 22.6075 10.9219C24.4656 10.9219 24.5894 12.7706 24.4656 13.51ZM14.9882 12.054L15.18 11.0366C15.18 11.0366 13.6992 10.5895 12.4955 11.418V15.4878H13.7738V12.1811C14.2851 11.7997 14.9882 12.054 14.9882 12.054ZM9.65998 11.7847C8.85485 11.7847 8.79295 12.6474 8.79295 12.6474H10.5271C10.5271 12.6474 10.4653 11.7847 9.65998 11.7847ZM11.58 13.51H8.79295C8.79295 13.51 8.85485 14.4345 10.0936 14.4345C10.7128 14.4345 11.3323 14.2494 11.3323 14.2494L11.4562 15.2354C11.4562 15.2354 10.8368 15.482 9.96963 15.482C8.7309 15.482 7.61597 14.8657 7.61597 13.1403C7.61597 11.7847 8.48315 10.9219 9.72188 10.9219C11.58 10.9219 11.7038 12.7706 11.58 13.51ZM18.1078 13.9323C17.4587 12.3824 17.1343 10.9227 17.1343 10.9227L15.8364 10.9228C15.8364 10.9228 16.4854 13.4157 17.5888 15.4812H18.6268C19.7302 13.4157 20.3793 10.9232 20.3793 10.9232H19.0813C19.0813 10.9232 18.7569 12.3824 18.1078 13.9323Z" fill="#03435F"/>
</g>
<defs>
<clipPath id="clip0_27_2744">
<rect x="0.5" width="24" height="24" rx="2.4" fill="white"/>
</clipPath>
</defs>
</svg>
