<svg width="25" height="24" viewBox="0 0 25 24" fill="none" xmlns="http://www.w3.org/2000/svg">
<g clip-path="url(#clip0_27_2741)">
<path d="M12.9124 10.5872C12.8987 11.6667 13.8744 12.2691 14.6094 12.6273C15.3646 12.9947 15.6183 13.2304 15.6153 13.559C15.6096 14.0619 15.0129 14.2839 14.4545 14.2925C13.4802 14.3076 12.9138 14.0295 12.4634 13.8192L12.1125 15.4614C12.5643 15.6696 13.4009 15.8512 14.2685 15.8591C16.305 15.8591 17.6373 14.8539 17.6445 13.2952C17.6525 11.3171 14.9085 11.2077 14.9272 10.3235C14.9337 10.0554 15.1895 9.76931 15.7501 9.69657C16.0275 9.65982 16.7935 9.6317 17.6619 10.0316L18.0027 8.4427C17.5357 8.27266 16.9355 8.10983 16.1882 8.10983C14.2714 8.10983 12.9232 9.12879 12.9124 10.5872ZM21.2778 8.24669C20.9059 8.24669 20.5926 8.46361 20.4527 8.79648L17.5437 15.7424H19.5787L19.9836 14.6233H22.4704L22.7053 15.7424H24.4989L22.9337 8.24669H21.2778ZM21.5625 10.2716L22.1498 13.0863H20.5414L21.5625 10.2716ZM10.445 8.24679L8.84095 15.7423H10.7801L12.3835 8.2466L10.445 8.24679ZM7.5763 8.24679L5.55789 13.3486L4.74142 9.01058C4.64562 8.52632 4.26728 8.24669 3.84714 8.24669H0.547679L0.501465 8.46436C1.17883 8.61134 1.94844 8.84841 2.4147 9.10207C2.70004 9.25702 2.78141 9.39248 2.87515 9.76069L4.42158 15.7424H6.47083L9.61262 8.24669L7.5763 8.24679Z" fill="url(#paint0_linear_27_2741)"/>
</g>
<defs>
<linearGradient id="paint0_linear_27_2741" x1="1103.76" y1="31.4042" x2="1126.19" y2="-764.46" gradientUnits="userSpaceOnUse">
<stop stop-color="#222357"/>
<stop offset="1" stop-color="#254AA5"/>
</linearGradient>
<clipPath id="clip0_27_2741">
<rect width="24" height="7.78042" fill="white" transform="translate(0.5 8.10986)"/>
</clipPath>
</defs>
</svg>
